#!OML:ASF H:\GeneralSubjects\Female5\Project 1\Capture day 1\Session 1\Female5.ASF
:FULLY-SPECIFIED
:DEGREES
361
root 13.7028 16.0622 3.29865 -163.075 53.7914 -170.961
lowerback 8.28491 5.0627 0.614131
upperback -10.0606 7.19371 -2.15745
thorax -15.4898 3.29444 -4.33314
lowerneck -13.5103 6.18755 12.0538
upperneck 33.7885 9.44305 -3.53244
head 14.7056 5.91991 -1.73751
rclavicle -1.17283e-013 -6.04305e-014
rhumerus -47.6869 28.4855 -87.038
rradius 41.3593
rwrist -3.48337
rhand -28.7097 -14.2582
rfingers 7.12502
rthumb -2.07131 -44.2278
lclavicle -1.17283e-013 -6.04305e-014
lhumerus -45.6775 -2.86113 62.1118
lradius 33.6068
lwrist 6.43382
lhand -27.3071 31.4227
lfingers 7.12502
lthumb -0.71669 61.4012
rfemur -23.1667 -17.4224 28.6188
rtibia 50.2279
rfoot -8.78683 -15.1883
rtoes -38.2696
lfemur -11.7276 -10.7201 -27.5595
ltibia 16.2304
lfoot -35.1741 -2.00123
ltoes -30.8911
362
root 13.8967 16.0875 3.321 -163.853 52.9854 -171.522
lowerback 8.56073 4.86452 0.333375
upperback -9.94099 6.88031 -2.02436
thorax -15.5927 3.17828 -3.9908
lowerneck -13.4925 6.0886 12.0707
upperneck 33.8494 9.3091 -3.54458
head 14.7173 5.87023 -1.76923
rclavicle 3.88624e-014 4.13472e-014
rhumerus -48.9627 27.1778 -86.3582
rradius 40.8029
rwrist -4.00952
rhand -28.7111 -14.4404
rfingers 7.12502
rthumb -2.07266 -44.4101
lclavicle 3.88624e-014 4.13472e-014
lhumerus -44.2733 -2.35969 62.308
lradius 34.0134
lwrist 6.10603
lhand -27.8294 31.7755
lfingers 7.12502
lthumb -1.22115 61.7517
rfemur -23.7124 -15.4867 27.0069
rtibia 47.486
rfoot -10.7571 -16.9937
rtoes -33.8951
lfemur -10.2733 -11.6555 -27.5584
ltibia 15.2779
lfoot -35.4072 -0.564513
ltoes -33.0846
363
root 14.0935 16.1104 3.34423 -164.538 52.0462 -172.054
lowerback 8.79748 4.65818 0.0709655
upperback -9.86727 6.56315 -1.90045
thorax -15.7195 3.0601 -3.66474
lowerneck -13.4746 5.95323 12.05
upperneck 33.8992 9.11892 -3.52875
head 14.7136 5.79595 -1.79367
rclavicle -5.33737e-014 -1.43125e-014
rhumerus -50.3969 25.9543 -85.8097
rradius 40.1926
rwrist -4.51408
rhand -28.6601 -14.6237
rfingers 7.12502
rthumb -2.0234 -44.5939
lclavicle -5.33737e-014 -1.43125e-014
lhumerus -42.8132 -1.69234 62.5166
lradius 34.3055
lwrist 5.42684
lhand -28.354 31.9948
lfingers 7.12502
lthumb -1.72782 61.9676
rfemur -23.8776 -13.3506 25.2583
rtibia 43.8155
rfoot -12.4124 -18.097
rtoes -29.6614
lfemur -8.88332 -12.6586 -27.5451
ltibia 14.2671
lfoot -35.5487 0.81736
ltoes -35.1373
364
root 14.2934 16.13 3.36819 -165.088 50.9948 -172.529
lowerback 8.96422 4.4407 -0.16618
upperback -9.83569 6.24092 -1.77389
thorax -15.8464 2.94073 -3.34163
lowerneck -13.4805 5.79913 12.0106
upperneck 33.9547 8.89924 -3.50391
head 14.7131 5.70798 -1.81562
rclavicle 9.74045e-015 2.38542e-015
rhumerus -51.936 24.8242 -85.3636
rradius 39.5207
rwrist -4.86356
rhand -28.535 -14.8015
rfingers 7.12502
rthumb -1.90263 -44.7727
lclavicle 9.74045e-015 2.38542e-015
lhumerus -41.3398 -0.961455 62.8119
lradius 34.5019
lwrist 4.5564
lhand -28.8652 32.0225
lfingers 7.12502
lthumb -2.22151 61.9907
rfemur -23.717 -10.9871 23.4096
rtibia 39.3524
rfoot -13.6997 -18.8502
rtoes -26.2138
lfemur -7.5819 -13.7821 -27.4863
ltibia 13.2029
lfoot -35.6854 2.0261
ltoes -36.7603
365
root 14.4971 16.1451 3.39321 -165.5 49.8482 -172.938
lowerback 9.04014 4.20864 -0.396207
upperback -9.82732 5.90681 -1.62685
thorax -15.941 2.82101 -2.98682
lowerneck -13.5215 5.64513 11.9506
upperneck 34.0068 8.67831 -3.48203
head 14.7178 5.6148 -1.83441
rclavicle -1.19569e-013 -4.53229e-014
rhumerus -53.5168 23.8096 -84.9853
rradius 38.7928
rwrist -4.97703
rhand -28.3156 -14.9587
rfingers 7.12502
rthumb -1.6907 -44.9318
lclavicle -1.19569e-013 -4.53229e-014
lhumerus -39.8887 -0.339263 63.2942
lradius 34.6449
lwrist 3.7785
lhand -29.034 31.7324
lfingers 7.12502
lthumb -2.3845 61.6988
rfemur -23.2649 -8.35109 21.4744
rtibia 34.248
rfoot -14.7339 -19.5255
rtoes -23.5944
lfemur -6.38262 -15.036 -27.364
ltibia 12.1265
lfoot -35.8844 2.91284
ltoes -37.6852
